<svg width="133" height="38" viewBox="0 0 133 38" fill="none" xmlns="http://www.w3.org/2000/svg">
<path d="M34.287 11.2128L31.8089 10.3723L31.749 10.3532L28.95 9.39546H28.9237L30.0419 4.9707L24.1685 6.96041C24.0268 7.00872 23.8994 7.0916 23.7979 7.20155C23.6963 7.31151 23.6237 7.44506 23.5867 7.59012L22.198 13.078V13.1163L22.0567 13.6478V13.6909L19.3104 24.4846L19.2745 24.4727L13.9112 22.6553L4.73362 19.5451L4.67616 19.5259L15.6447 15.8027L16.7892 11.2822V11.2463L17.2848 9.28292L14.1506 10.3532L14.0931 10.3723L0.555489 14.9575C0.393831 15.0124 0.253379 15.1165 0.15378 15.2552C0.0541797 15.3938 0.000413073 15.5602 0 15.7309V23.9028L12.5224 28.1456L13.9854 28.6412L17.8858 29.9629H17.9217V29.9988L17.019 33.564L22.7319 31.6294L22.7918 31.6078C22.9665 31.5512 23.124 31.4512 23.2496 31.3172C23.3752 31.1832 23.4648 31.0196 23.5101 30.8416L24.6642 26.278L25.0137 24.8989L27.5422 14.912V14.8761H27.5685L32.9055 16.6838L41.0702 19.4493L41.0128 19.4685L31.3659 22.7463L30.0107 28.1001L29.7162 29.2661L31.5838 28.634L45.1765 24.0273C45.3386 23.973 45.4794 23.8691 45.5791 23.7303C45.6788 23.5915 45.7323 23.4248 45.732 23.2539V15.0844L34.287 11.2128ZM22.9498 13.3677L22.89 13.3461L22.9498 13.327L23.0073 13.3461L22.9498 13.3677ZM28.4161 11.5145L28.3826 11.5264V11.4833L28.4137 11.4714L28.4161 11.5145Z" fill="#D9CF79"/>
<path d="M70.5783 8.14078C70.5783 13.5041 68.3276 16.2816 62.9164 16.2816H57.1963V0H62.9164C68.3324 0 70.5783 2.7535 70.5783 8.14078ZM67.4656 8.14078C67.4656 4.19011 66.6516 3.11265 62.9164 3.11265H60.3089V13.1689H62.9164C66.6564 13.1689 67.4656 11.9957 67.4656 8.14078Z" fill="white"/>
<path d="M83.5601 11.3013H75.994C76.2574 12.4985 77.0475 13.1689 79.2982 13.1689C80.459 13.186 81.6173 13.0573 82.7461 12.7858V15.8506C81.5416 16.1577 80.3016 16.3026 79.0588 16.2816C73.5254 16.2816 72.7329 12.3788 72.7329 10.1281C72.7329 6.70418 74.2198 3.95068 78.1944 3.95068C82.0733 3.95068 83.5578 6.51264 83.5578 9.86472L83.5601 11.3013ZM75.8743 8.90698H80.4236C80.3278 7.5422 79.6334 7.06333 78.1489 7.06333C76.7123 7.06333 76.018 7.61403 75.8743 8.90698Z" fill="white"/>
<path d="M97.0404 3.95068L93.2334 16.2816H88.4447L84.6377 3.95068H87.9419L90.6475 12.8816H91.0306L93.7362 3.95068H97.0404Z" fill="white"/>
<path d="M103.024 13.1689V16.2816H99.9111V13.1689H103.024Z" fill="#D9CF79"/>
<path d="M75.501 20.874V37.1556H72.3884V28.3204H72.0148L68.0881 35.9345H64.6403L60.7135 28.3204H60.3304V37.1556H57.2178V20.874H60.3304L66.1726 32.1993H66.5557L72.3979 20.874H75.501Z" fill="white"/>
<path d="M90.1785 34.0429V37.1556H85.5095V35.9584C84.9109 36.581 83.9771 37.1556 82.1814 37.1556C79.2603 37.1556 77.8955 35.288 77.8955 33.0852C77.8955 30.8824 79.2603 29.0148 82.1814 29.0148C83.9771 29.0148 84.9109 29.5655 85.5095 30.212V27.9374H79.2842V24.8247H88.6222V34.0429H90.1785ZM85.5095 33.0852C85.5095 32.1275 84.887 31.8401 83.2588 31.8401C81.6307 31.8401 81.0082 32.1275 81.0082 33.0852C81.0082 34.0429 81.6307 34.3303 83.2588 34.3303C84.887 34.3303 85.5095 34.0429 85.5095 33.0852Z" fill="white"/>
<path d="M100.163 27.9374H95.5658V37.1556H92.4531V24.8247H100.163V27.9374Z" fill="white"/>
<path d="M105.55 20.395V37.1554H102.438V20.395H105.55Z" fill="white"/>
<path d="M107.705 30.9782C107.705 27.4585 109.788 24.8247 113.667 24.8247C117.546 24.8247 119.629 27.4585 119.629 30.9782C119.629 34.4979 117.546 37.1556 113.667 37.1556C109.788 37.1556 107.705 34.4979 107.705 30.9782ZM116.516 30.9782C116.516 28.5838 115.774 27.9374 113.667 27.9374C111.56 27.9374 110.818 28.5838 110.818 30.9782C110.818 33.3725 111.56 34.0429 113.667 34.0429C115.774 34.0429 116.516 33.3725 116.516 30.9782Z" fill="white"/>
<path d="M132.917 37.1556H129.805V27.9374H124.777V37.1556H121.664V24.8247H132.917V37.1556Z" fill="white"/>
</svg>
